<?xml version="1.0" encoding="UTF-8" standalone="no"?>
<svg
   version="1.1"
   viewBox="0 0 550 550"
   id="svg14"
   sodipodi:docname="ic_launcher_foreground_sc.svg"
   inkscape:version="1.2.2 (b0a8486541, 2022-12-01)"
   xmlns:inkscape="http://www.inkscape.org/namespaces/inkscape"
   xmlns:sodipodi="http://sodipodi.sourceforge.net/DTD/sodipodi-0.dtd"
   xmlns="http://www.w3.org/2000/svg"
   xmlns:svg="http://www.w3.org/2000/svg">
  <sodipodi:namedview
     id="namedview16"
     pagecolor="#ffffff"
     bordercolor="#000000"
     borderopacity="0.25"
     inkscape:showpageshadow="2"
     inkscape:pageopacity="0.0"
     inkscape:pagecheckerboard="0"
     inkscape:deskcolor="#d1d1d1"
     showgrid="false"
     inkscape:zoom="1.8672727"
     inkscape:cx="274.73223"
     inkscape:cy="275"
     inkscape:window-width="5120"
     inkscape:window-height="1372"
     inkscape:window-x="5120"
     inkscape:window-y="1080"
     inkscape:window-maximized="1"
     inkscape:current-layer="svg14" />
  <defs
     id="defs4">
    <style
       id="style2">
            .cls-1 {
            fill: #3e4a66;
            }

            .cls-2 {
            fill: #fff;
            }
        </style>
  </defs>
  <!-- Generator: Adobe Illustrator 28.7.0, SVG Export Plug-In . SVG Version: 1.2.0 Build 136)  -->
  <g
     id="g12"
     transform="matrix(0.7592479,0,0,0.7592479,66.205693,66.211747)">
    <g
       id="svg5">
      <path
         class="cls-2"
         d="m 445.71,84.46 -337.1,17.9 C 79.6,103.9 58.06,129.85 61.89,158.65 l 24.17,181.9 c 3.13,23.54 23.5,40.93 47.24,40.32 l 139.68,-3.58 18.46,88.33 69.35,-90.58 55.95,-1.43 c 29.66,-0.76 53.96,-23.78 56.32,-53.35 l 15.35,-191.92 c 1.96,-24.53 -18.13,-45.17 -42.7,-43.86 z"
         id="path6" />
    </g>
    <g
       id="Layer_2">
      <path
         class="cls-1"
         d="m 345.51,182.51 v -0.27 c 12.61,-12.18 21.83,-27.67 26.11,-45.03 h -32.35 c -2.61,6.96 -6.42,13.36 -11.18,18.97 l -0.08,-0.05 -9.15,8.98 c -11.48,9.14 -26.15,14.63 -42.15,14.63 -28.75,0 -53.24,-17.72 -62.56,-42.53 h -32.09 c 10.02,40.59 46.91,71 91.37,72.49 l -90.7,89.02 h -0.61 v 27.99 H 371.63 V 298.72 H 227.1 L 345.52,182.51 Z"
         id="path9" />
    </g>
  </g>
</svg>
